<svg xmlns="http://www.w3.org/2000/svg" viewBox="0 0 3992.05 1207.57">
  <defs>
    <linearGradient id="Безымянный_градиент_11" x1="2114.38" x2="1875.42" y1="18.25" y2="1201.94" gradientUnits="userSpaceOnUse">
      <stop offset="0" stop-color="#fff"/>
      <stop offset=".26" stop-color="#f9f9f9"/>
      <stop offset=".6" stop-color="#e9e9e9"/>
      <stop offset=".98" stop-color="#cecece"/>
      <stop offset="1" stop-color="#ccc"/>
    </linearGradient>
    <linearGradient id="Безымянный_градиент_25" x1="43.91" x2="3970.45" y1="603.79" y2="603.79" gradientUnits="userSpaceOnUse">
      <stop offset="0" stop-color="#fff"/>
      <stop offset=".42" stop-color="#fcfcfc"/>
      <stop offset=".77" stop-color="#f2f2f2"/>
      <stop offset="1" stop-color="#e6e6e6"/>
    </linearGradient>
    <style>
      .cls-3{fill:#666}.cls-4{fill:#2a333a}
    </style>
  </defs>
  <g id="Layer_2" data-name="Layer 2">
    <g id="Слой_1" data-name="Слой 1">
      <path fill="url(#Безымянный_градиент_11)" d="M3992.05 603.78c0 333.47-252.3 603.79-563.54 603.79h-2865C252.3 1207.57 0 937.25 0 603.78 0 270.33 258.64 0 569.87 0h2858.64c311.24 0 563.54 270.33 563.54 603.78Z"/>
      <path fill="url(#Безымянный_градиент_25)" d="M3970.45 603.78c0 315.4-248.15 571.09-554.28 571.09H598.2c-306.13 0-554.29-255.69-554.29-571.09 0-315.4 248.16-571.07 554.29-571.07h2818c306.13 0 554.28 255.67 554.28 571.07Z"/>
      <path d="m1525 806.72-25.82-61.27h-117.72l-25.82 61.27h-61.71l126.48-298h42.89l123 298Zm-125.6-107.66h83.16l-41.14-105ZM1665.92 782.21v126h-53.39v-291h53.39v24.51q21.88-30.63 61.71-30.63 41.58 0 67.4 28.44t25.82 72.21q0 43.77-26.48 72.43t-68 28.67q-38.12.01-60.45-30.63Zm84.91-108.53q-14.89-15.31-37.64-15.32t-37.64 15.32q-14.88 15.32-14.88 38.07t14.88 38.3q14.88 15.54 37.64 15.53t37.64-15.53q14.87-15.54 14.88-38.3t-14.88-38.07ZM1915.37 782.21v126H1862v-291h53.39v24.51q21.89-30.63 61.71-30.63 41.58 0 67.4 28.44t25.82 72.21q0 43.77-26.48 72.43t-68 28.67q-38.15.01-60.47-30.63Zm84.91-108.53q-14.9-15.31-37.64-15.32T1925 673.68q-14.88 15.32-14.88 38.07t14.88 38.3q14.88 15.54 37.64 15.53t37.64-15.53q14.87-15.54 14.88-38.3t-14.88-38.07ZM2394.58 542.39l-29.76 39q-18.83-24.95-47.7-25-21 0-30.64 10.29a33.83 33.83 0 0 0-9.63 23.85 24.89 24.89 0 0 0 9.19 19.69q7 6.57 35 16.63 43.34 14.88 59.08 29.32 25 22.32 24.95 61.27 0 42.9-28.23 69.37t-73.3 26.48q-63 0-100.66-55.15l37.2-35.45q9.63 19.69 26.7 29.33t34.57 9.62q19.69 0 32.39-11.16t12.69-29.1q0-15.32-11.38-26.26-10.5-9.61-45.08-21.44-32.39-10.93-48.58-25.38-23.19-20.13-23.19-54.27 0-35.44 24.07-60.61t69.58-25.17q49.46 0 82.73 34.14ZM2537.25 662.74h-36.77v144h-53.39v-144h-21v-45.52h21v-64.77h53.39v64.77h36.77ZM2664.15 611.1q47.7 0 76.59 26.69 32 28.89 32 74.4 0 45.09-32 74-28.87 26.7-76.59 26.7t-76.58-26.7q-32-28.87-32-74 0-45.51 32-74.4 28.89-26.68 76.58-26.69Zm-38.07 138.73q15.32 15.75 38.07 15.75t38.08-15.75a52.13 52.13 0 0 0 15.32-37.64q0-22.32-15.32-38.07t-38.08-15.76q-22.76 0-38.07 15.76t-15.32 38.07a52.13 52.13 0 0 0 15.32 37.64ZM2813.82 806.72v-189.5h53.4v28.45q9.62-18.37 23.63-26.26 13.13-8.31 31.51-8.31a68.23 68.23 0 0 1 22.76 4.37l-7 49.89q-10.07-7-24.94-7-23.21 0-35.45 15.32-10.5 13.13-10.5 42v91ZM3108.35 745.89l49 7.88a83.22 83.22 0 0 1-8.09 15.53q-5 7.66-15.54 18.82t-28.45 17.94q-17.94 6.78-41.13 6.79-44.64 0-72.65-26.7-29.77-28-29.76-74 0-45.51 28.88-74.4 27.14-26.68 71.34-26.69 48.14 0 74 31.07 22.76 27.14 22.76 74.4v4.37h-141.8q0 19.27 9.19 31.95 13.13 18 38.08 17.94 29.72.04 44.17-24.9Zm-89.72-59.08h89.72q-3.07-18.39-16-28.23a46.79 46.79 0 0 0-29.1-9.85 45.49 45.49 0 0 0-28.66 10.07q-12.89 10.07-15.96 28.01ZM1293.93 423.63V314.88h22.18q25.11 0 40.1 12.71 18.6 15.5 18.59 41.74 0 25.44-19.07 41.74a49.5 49.5 0 0 1-16.8 9.62q-9 2.94-23 2.94Zm12.07-97.34v85.92h10.6q19.39 0 31.14-9.78 14.67-12.39 14.67-33.1 0-19.56-12.55-31.3t-33.26-11.74ZM1487.87 409.44q-16.38 16.14-40.19 16.14t-40.19-16.14q-16.38-16.14-16.38-40.11t16.46-40.19q16.47-16 40.11-16.06t40.11 16.06q16.47 16.07 16.47 40.19 0 23.97-16.39 40.11Zm-8.89-71.9a44.08 44.08 0 0 0-62.6 0q-12.89 13.05-12.88 31.79t12.88 31.8a44.08 44.08 0 0 0 62.6 0 45.66 45.66 0 0 0 0-63.59ZM1510.29 314.88h13.37l28.69 81.52 34.08-87.07 32.28 87.07 31.8-81.52h13.37l-45.66 114.45-32-87.06-34.22 87.06ZM1691.27 423.63h-12.07V310.31l84.8 88.86v-84.29h12.07v113.64l-84.78-88.86ZM1804.09 314.88h12.07v97.33h30v11.42h-42.07ZM1947.81 409.44q-16.38 16.14-40.19 16.14t-40.19-16.14q-16.38-16.14-16.39-40.11t16.47-40.19q16.47-16 40.11-16.06t40.11 16.06q16.47 16.07 16.47 40.19 0 23.97-16.39 40.11Zm-8.88-71.9a44.1 44.1 0 0 0-62.61 0q-12.88 13.05-12.88 31.79t12.88 31.8a44.1 44.1 0 0 0 62.61 0 45.68 45.68 0 0 0 0-63.59ZM2055.83 423.63 2043.11 393h-46.3l-13 30.66h-13.37l50.06-114 48.75 114Zm-54.3-42.07h36.85L2020.12 338ZM2084.52 423.63V314.88h22.18q25.1 0 40.1 12.71 18.6 15.5 18.59 41.74 0 25.44-19.07 41.74a49.5 49.5 0 0 1-16.8 9.62q-9 2.94-23 2.94Zm12.07-97.34v85.92h10.6q19.39 0 31.14-9.78Q2153 390 2153 369.33q0-19.56-12.55-31.3t-33.26-11.74ZM2316.45 409.44q-16.39 16.14-40.19 16.14t-40.19-16.14q-16.4-16.14-16.39-40.11t16.47-40.19q16.47-16 40.11-16.06t40.11 16.06q16.46 16.07 16.46 40.19 0 23.97-16.38 40.11Zm-8.89-71.9a44.1 44.1 0 0 0-62.61 0 45.68 45.68 0 0 0 0 63.59 44.1 44.1 0 0 0 62.61 0q12.89-13 12.88-31.8t-12.88-31.79ZM2367.07 423.63H2355V310.31l84.78 88.86v-84.29h12.06v113.64l-84.78-88.86ZM2571 326.29h-26.42v97.34h-12.06v-97.34h-26.42v-11.41h64.9ZM2599.4 314.88v44.18h55.76v-44.18h12.07v108.75h-12.07v-53.16h-55.76v53.16h-12.06V314.88ZM2751.68 314.88v11.41h-44.34v32.28h43V370h-43v42.23h44.34v11.42h-56.41V314.88Z" class="cls-3"/>
      <path d="M1069.28 449.75c-98.54 71.14-91.38 200.83 17.2 259.49-19.89 57.93-49.54 110.07-95.57 151.42-25.27 22.7-56.74 25.49-86.44 11.33-48.12-23-94-21.69-141.84.54-29.11 13.53-58.88 10.94-84-11.42-85.55-76-145.51-233.84-112.32-348.05 22.49-77.39 86.35-127.93 160.24-123.16 20.91 1.35 42.18 8.46 61.74 16.62 25.86 10.78 49.68 11.19 75.23-.39 42.35-19.2 86.08-27.71 131.92-11.53 29.79 10.53 54.42 27.58 73.84 55.15ZM949.53 230.79c12.6 71.08-53.84 148.76-125.56 146.78-17.51-62.8 53.8-146.16 125.56-146.78Z" class="cls-4"/>
    </g>
  </g>
</svg>
