<svg xmlns="http://www.w3.org/2000/svg" xml:space="preserve" viewBox="0 0 1190.6 841.9">
  <path d="M839.7 521.5c-17.2-17.9-38-27.5-60.1-27.5-21.9 0-42.8 9.4-60.8 27.4l-56.1 56c-4.6-2.5-9.2-4.8-13.7-7.1-6.4-3.2-12.4-6.2-17.6-9.4C578.8 527.5 531 484 485.2 427.6c-22.2-28.1-37.1-51.7-48-75.7 14.6-13.3 28.1-27.2 41.2-40.5 5-5 10-10.1 14.9-15.1 37.3-37.3 37.3-85.6 0-123l-48.5-48.5c-5.5-5.5-11.2-11.2-16.5-16.9-10.7-11-21.9-22.4-33.4-33-17.2-17.1-37.8-26.1-59.5-26.1-21.7 0-42.6 9.1-60.4 26.1l-.4.4-60.4 60.9c-22.7 22.7-35.7 50.5-38.6 82.6-4.3 51.9 11 100.2 22.7 131.8 28.8 77.6 71.8 149.6 135.9 226.7 77.8 92.9 171.5 166.3 278.4 218 40.9 19.4 95.4 42.3 156.4 46.2 3.7.2 7.6.4 11.2.4 41 0 75.5-14.7 102.5-44.1.2-.4.5-.5.7-.9 9.2-11.2 19.9-21.3 31.1-32.2 7.6-7.3 15.5-14.9 23.1-22.9 17.6-18.3 26.8-39.6 26.8-61.5 0-22-9.4-43.2-27.4-60.9l-97.3-97.9zm63.6 187.1c-.2 0-.2.2 0 0-6.9 7.5-14 14.2-21.7 21.7-11.6 11-23.3 22.6-34.3 35.5-17.9 19.2-39.1 28.3-66.8 28.3-2.7 0-5.5 0-8.2-.2-52.8-3.4-101.8-24-138.6-41.6-100.6-48.7-188.9-117.8-262.3-205.4-60.6-73-101.1-140.6-127.9-213-16.5-44.2-22.6-78.7-19.9-111.2 1.8-20.8 9.8-38 24.5-52.8l60.6-60.6c8.7-8.2 17.9-12.6 27-12.6 11.2 0 20.3 6.8 25.9 12.4l.5.5c10.8 10.1 21.1 20.6 32 31.8 5.5 5.7 11.2 11.4 16.9 17.2l48.5 48.5c18.8 18.8 18.8 36.2 0 55.1-5.2 5.2-10.1 10.3-15.3 15.3-14.9 15.3-29.1 29.5-44.6 43.4-.4.4-.7.5-.9.9-15.3 15.3-12.4 30.2-9.2 40.3.2.5.4 1.1.5 1.6 12.6 30.6 30.4 59.3 57.4 93.6l.2.2c49 60.4 100.7 107.5 157.8 143.6 7.3 4.6 14.7 8.4 21.9 11.9 6.4 3.2 12.4 6.2 17.6 9.4.7.4 1.4.9 2.1 1.2 6 3 11.7 4.4 17.6 4.4 14.7 0 24-9.2 27-12.3l60.8-60.8c6-6 15.6-13.3 26.8-13.3 11 0 20.1 6.9 25.6 13l.4.4 97.9 97.9c18.3 18.2 18.3 36.9.2 55.7zM629.3 200.3c46.6 7.8 88.8 29.9 122.6 63.6 33.8 33.8 55.6 76.1 63.6 122.6 2 11.7 12.1 19.9 23.6 19.9 1.4 0 2.7-.2 4.1-.4 13.1-2.1 21.9-14.6 19.7-27.7-9.6-56.3-36.2-107.7-76.9-148.4s-92-67.3-148.4-76.9c-13.1-2.1-25.4 6.6-27.7 19.5-2.3 13 6.3 25.6 19.4 27.8zM1015.2 371.4c-15.8-92.8-59.5-177.2-126.7-244.3C821.4 59.9 737 16.2 644.2.4c-13-2.3-25.2 6.6-27.5 19.5-2.1 13.1 6.6 25.4 19.7 27.7 82.8 14 158.3 53.3 218.4 113.2 60.1 60.1 99.1 135.6 113.2 218.4 2 11.7 12.1 19.9 23.6 19.9 1.4 0 2.7-.2 4.1-.4 13-1.9 21.9-14.4 19.5-27.3z"/>
</svg>
