<svg xmlns="http://www.w3.org/2000/svg" viewBox="0 0 234.5 677.72">
    <path fill="#5d5c5c" d="M234.44 606.49c-.47-5.68-11.36-19.64-17.28-28.87s-6.62-19.41-6.62-27.46 7.57-25.09 12.31-34.32 2.6-18.94 1.18-25.09-.48-8.76-2.13-17.28-8.05-7.57-12.78-10.41a21.57 21.57 0 0 1-2.37-1.66 56.63 56.63 0 0 1-4.95-4.4l-2.52-2.36s-6.73-7.22-6.49-12.43-2.61-22.72-3.32-29.11-2.6-10.89-6.62-20.83-8.53-19.65-10.66-23.2-1.18-5.68-.47-7.57a12.84 12.84 0 0 0 .28-8.5c-1.19-3.08 0-7.34 0-9.47s-1.66-.95-1.66-.95a105.51 105.51 0 0 0-.47-13C169.12 321.75 132.66.24 132.66.24L126.27 0S158 309.44 157.52 318.68s-.71 19.64-.71 19.64l-2.37 1.9a49.69 49.69 0 0 1-1.18 8.28l-.95 7-46.15 83.08s-2.13 3.2-22.73 32.31-44 62.84-44 62.84-4.26 1.07-9.23 2.13-5.68 4.62-11.36 6.75-5.33 2.13-5.33 2.13c-5.68.35-5.33 3.55-9.23 4.61S0 553.24 0 553.24s9.23 2.48 14.2 2.13a27.5 27.5 0 0 1 10 1.46l10.61 120.89h20.77l-11.2-114.78 11.83-4.49s14.44 2.36 22.73 4 15.38 2.37 23.9 6.39 16.1 4.5 20.83 3.31 14.2-1.18 14.2-1.18.24 9 1.66 13 10.65 8 14.67 11.6 10.89 5.91 10.89 5.91 5.21 1.9 15.86 5.68 27.93 9.24 39.76 11.6 14.21-6.59 13.73-12.27Zm-72.9-286.63s4 16.57 4 19.88v3.32l-4.5-3.32Zm-5.44 43.55c.71-1.42 3.31 5 3.31 5l-19.88 28.4ZM49.59 541.88c-1.66.71-5-2.61-5.68-2.61L64 515.13s-12.76 26.04-14.41 26.75Zm68.64 7.81c-10.42 2.36-12.78-1-18.23-3.55s-9.94-5-18-3.08a51.62 51.62 0 0 1-15.78 1S121.08 435.41 119 437s43.3-60.94 43.3-60.94 3.46 11.45 5 17.76a123.72 123.72 0 0 0 5.42 16c1.24 3.2 1.68 8.88 3.19 14s1.25 12.24 1.25 12.24l-1.07-.79c-1.06-.8-1.42-3.29-3.19-5.33s-3.38-1.69-5.06-.09-2.14.45-3.47.36-1.33.65-1.33.65l-.94-.24a.7.7 0 0 0-1 .71s.71.71-.24 2-1.42.71-2.6-.59a2.66 2.66 0 0 0-3-.47 51.2 51.2 0 0 1-1.89 6.86 3.53 3.53 0 0 1-3.08 2.25 10.84 10.84 0 0 0-4.5 3.67 19.23 19.23 0 0 0-2 5c-.95 2.84-2.84 6.63.71 15.15s15.39 13 15.39 13l.23 2.84c.24 2.84-4.73 7.81-6.86 14.44s-.24 10.88 3.07 14.43 2.85 1.42 3.08 7.1-4.5 1-4.5 1-1.18 3.08 3.08 4.5 8.52-2.61 8-5.45 1.66-4.73 5-8.75.71-7.81-.71-10.65 3.55-3.79 2.13-10.89-8.52-8.52-7.1-10.65 5.92-.71 9.7.23c1.19.3 2.06.48 2.68.59 1.85 2 7.91 9.11 10.11 16.69 2.6 9 1.65 14.2-.95 20.36s-14.68 10.17-22.25 13-17.28 14-17.28 14l-4.26 1c-4.24.83-14.42 5.33-24.83 7.7Zm67.1 42.78c-7.46-.18-17-.71-18.11-2.66s-2.66-9.23-5.86-9.23-6.74 1.59-8.34.53-2.84-4.26-5.15-5.33l-2.3-1.06-3.91-4.08a111.74 111.74 0 0 0 28.4-4.27s5.51 8.88 12.07 14 12.61 10.65 13.5 11.36l.88.71s-3.72.21-11.18.03Z" opacity=".8"/>
</svg>
