<svg xmlns="http://www.w3.org/2000/svg" viewBox="0 0 3449.89 630.48"><defs><style>.cls-1{fill:#7e7d83;}</style></defs><g id="Layer_2" data-name="Layer 2"><g id="Слой_1" data-name="Слой 1"><path class="cls-1" d="M165.71,628.71c-219.1,10.54-154.45-299-163.26-443-24.39-237.84,373.79-249,359.47-23,0,0,0,68.9,0,68.9H244.71c-1-50.69,13.57-137.9-59.91-132.64-44.27,0-66.88,30.64-66.88,93.53V434c-10.89,125.42,138.31,123.16,130.24,5V385.51H176.1V291.14H361.91C359.44,465.56,398,637.19,165.71,628.71"/><path class="cls-1" d="M428.72,443.35v-256c-16.61-248.52,376-248.46,359.44,0v256c17.26,249.32-378.56,249.71-359.44,0m243.1-8.52V192.49c0-63.8-18.24-92.68-63.41-92.68-46.84,0-63.36,29.79-63.36,92.68V434.83c0,62.94,16.52,91.84,63.36,91.84,45.17,0,63.41-28.9,63.41-91.84"/><polygon class="cls-1" points="860.18 9.66 974.8 9.66 974.8 509.67 1141.49 509.67 1141.49 619.32 860.18 619.32 860.18 9.66"/><path class="cls-1" d="M1363.73,9.66c107.74.93,187,50.78,186.68,181.17-6.48,71.37,18.77,293.18-24.3,351.12-50,102.5-226.26,73.7-323,77.37V9.66Zm-48.65,512.77c65.19,4,120.46-1.66,119-94.42V198.44c1.35-92.82-54.14-98.26-119-94.38Z"/><path class="cls-1" d="M1694.49,400.82,1567.72,9.66h116.34c9.82,37.75,71.37,237.87,69.44,273-2.69-34.16,62.16-236.48,72-272.95H1941L1809.9,400.82v218.5H1694.49Z"/><path class="cls-1" d="M2091.22,619.37H1980.93V9.66c132.62,3.17,349.67-36.74,336.88,154,7.68,182.23-5.62,277.58-226.59,264.4Zm0-287.44c146.94,11.56,109.32-56.29,114.58-164.94,3.9-73.92-62.08-63.91-114.58-63.79Z"/><path class="cls-1" d="M2379.41,443.35v-256c-16.6-248.47,376.08-248.51,359.46,0v256c17.27,249.37-378.57,249.66-359.46,0m243.12-8.52V192.49c0-63.8-18.22-92.68-63.36-92.68-46.93,0-63.41,29.79-63.41,92.68V434.83c0,62.94,16.48,91.84,63.41,91.84,45.14,0,63.36-28.9,63.36-91.84"/><polygon class="cls-1" points="2810.89 9.66 2925.47 9.66 2925.47 509.67 3092.2 509.67 3092.2 619.32 2810.89 619.32 2810.89 9.66"/><polygon class="cls-1" points="3153.79 619.32 3153.79 9.66 3444.66 9.66 3444.66 109.15 3264.93 109.15 3264.93 260.54 3422.95 260.54 3422.95 360.84 3264.93 360.84 3264.93 516.47 3449.89 516.47 3449.89 619.32 3153.79 619.32"/></g></g></svg>