<svg xmlns="http://www.w3.org/2000/svg" viewBox="0 0 510.9 511">
  <g data-name="Layer 2">
    <g data-name="Слой 1">
      <path d="M509.6 150.24c-1.19-27.16-5.59-45.82-11.88-62A130.78 130.78 0 0 0 423 13.48C406.69 7.19 388.12 2.8 361 1.6 333.61.3 324.93 0 255.55 0s-78.06.3-105.31 1.5-45.82 5.59-62 11.88a124.64 124.64 0 0 0-45.32 29.54 125.92 125.92 0 0 0-29.44 45.23C7.19 104.42 2.8 123 1.6 150.13.3 177.49 0 186.17 0 255.55s.3 78.06 1.5 105.31 5.59 45.82 11.88 62a130.78 130.78 0 0 0 74.77 74.76c16.27 6.29 34.83 10.68 62 11.88s35.93 1.5 105.31 1.5 78.06-.3 105.32-1.5 45.81-5.59 62-11.88a130.68 130.68 0 0 0 74.77-74.76c6.28-16.28 10.68-34.84 11.87-62s1.5-35.93 1.5-105.31-.12-78.06-1.32-105.31Zm-46 208.63c-1.1 24.95-5.3 38.43-8.79 47.42a84.76 84.76 0 0 1-48.52 48.51c-9 3.49-22.55 7.69-47.41 8.78-26.95 1.2-35 1.5-103.22 1.5s-76.36-.3-103.22-1.5c-25-1.09-38.43-5.29-47.42-8.78a78.52 78.52 0 0 1-29.34-19.07 79.32 79.32 0 0 1-19.08-29.34c-3.49-9-7.69-22.57-8.78-47.42-1.2-27-1.5-35-1.5-103.22s.3-76.37 1.5-103.22c1.09-25 5.29-38.43 8.78-47.41a77.45 77.45 0 0 1 19.17-29.35 79.2 79.2 0 0 1 29.35-19.07c9-3.49 22.56-7.68 47.41-8.78 26.95-1.2 35-1.5 103.22-1.5s76.36.3 103.22 1.5c25 1.1 38.43 5.29 47.42 8.78a78.52 78.52 0 0 1 29.34 19.07 79.2 79.2 0 0 1 19.07 29.35c3.49 9 7.69 22.55 8.79 47.41 1.19 27 1.49 35 1.49 103.22s-.3 76.17-1.49 103.12Z"/>
      <path d="M255.55 124.28a131.27 131.27 0 1 0 131.27 131.27 131.31 131.31 0 0 0-131.27-131.27Zm0 216.42a85.15 85.15 0 1 1 85.15-85.15 85.17 85.17 0 0 1-85.15 85.15ZM422.66 119.09A30.65 30.65 0 1 1 392 88.45a30.65 30.65 0 0 1 30.66 30.64Z"/>
    </g>
  </g>
</svg>
