<svg xmlns="http://www.w3.org/2000/svg" xml:space="preserve" viewBox="531 528 20 20">
  <g fill="#FFF">
    <path d="M548.071 528H533.93a2.933 2.933 0 0 0-2.93 2.93v14.141a2.933 2.933 0 0 0 2.93 2.93h14.141a2.933 2.933 0 0 0 2.93-2.93V530.93a2.934 2.934 0 0 0-2.93-2.93zm-7.032 15.234a5.278 5.278 0 0 1-5.273-5.273 5.279 5.279 0 0 1 5.273-5.273 5.279 5.279 0 0 1 5.273 5.273 5.277 5.277 0 0 1-5.273 5.273zm5.86-9.375c-.969 0-1.758-.789-1.758-1.758s.789-1.758 1.758-1.758 1.758.789 1.758 1.758-.79 1.758-1.758 1.758z"/>
    <path d="M546.899 531.515a.587.587 0 1 0 .002 1.174.587.587 0 0 0-.002-1.174zM541.039 533.859c-2.261 0-4.102 1.84-4.102 4.102s1.84 4.102 4.102 4.102c2.262 0 4.102-1.84 4.102-4.102s-1.84-4.102-4.102-4.102z"/>
  </g>
</svg>
