<svg xmlns="http://www.w3.org/2000/svg" viewBox="0 0 202.26 403.39"><defs><style>.cls-1{fill:#fff;}.cls-2,.cls-3{fill:#242424;}.cls-2{fill-rule:evenodd;}</style></defs><g id="Layer_2" data-name="Layer 2"><g id="Layer_1-2" data-name="Layer 1"><path class="cls-1" d="M65.44,4.5H27.53S8.11,12.69,8.11,20.6V378.5l19.42,18H175.09s21-7.34,21-24.67V20.6l-21-16.1Z"/><path class="cls-2" d="M180.82,18.37a.72.72,0,0,1-.7.82V17.55A.73.73,0,0,1,180.82,18.37Zm-.94-1.52v3a.7.7,0,0,1-.69.7h-9.13a.71.71,0,0,1-.71-.7h0v-3a.7.7,0,0,1,.71-.7h9.12A.7.7,0,0,1,179.88,16.85Zm-9.82-.47a.47.47,0,0,0-.47.47v3a.47.47,0,0,0,.47.47h9.12a.47.47,0,0,0,.47-.47v-3a.47.47,0,0,0-.47-.47Zm-.24.47v3a.24.24,0,0,0,.24.24h9.12a.24.24,0,0,0,.24-.23h0v-3a.23.23,0,0,0-.24-.23h-9.12a.23.23,0,0,0-.24.23Z"/><path class="cls-3" d="M30.58,19.51v.62h-2.9v-.49l1.56-1.48a1.73,1.73,0,0,0,.36-.44.88.88,0,0,0,.09-.38.49.49,0,0,0-.19-.42.83.83,0,0,0-.54-.14,1.08,1.08,0,0,0-.92.41l-.51-.4a1.59,1.59,0,0,1,.62-.48,2.14,2.14,0,0,1,.87-.17,1.59,1.59,0,0,1,1,.3,1,1,0,0,1,.38.83,1.38,1.38,0,0,1-.13.6,2.24,2.24,0,0,1-.52.64l-1.05,1Zm3.27,0v.62H31v-.49l1.56-1.48a2.32,2.32,0,0,0,.36-.44.88.88,0,0,0,.09-.38.49.49,0,0,0-.19-.42.83.83,0,0,0-.54-.14,1.08,1.08,0,0,0-.92.41l-.52-.4a1.67,1.67,0,0,1,.62-.48,2.22,2.22,0,0,1,.88-.17,1.59,1.59,0,0,1,1,.3,1,1,0,0,1,.38.83,1.38,1.38,0,0,1-.13.6,2.42,2.42,0,0,1-.52.64l-1.05,1h1.86Zm.53-1.61a.48.48,0,0,1-.14-.34.45.45,0,0,1,.14-.33.39.39,0,0,1,.32-.13.44.44,0,0,1,.46.44v0a.45.45,0,0,1-.13.34.49.49,0,0,1-.33.13.46.46,0,0,1-.32-.13Zm0,2.14a.48.48,0,0,1-.14-.34.49.49,0,0,1,.14-.34.41.41,0,0,1,.32-.12.44.44,0,0,1,.46.43v0A.42.42,0,0,1,35,20a.45.45,0,0,1-.33.14.43.43,0,0,1-.32-.14Zm4.76-.8h-.7v.89h-.7v-.89H35.58v-.51l1.94-2.53h.78l-1.83,2.42h1.29v-.79h.68v.79h.7v.62Zm3-3v.49l-1.52,3.44h-.78l1.47-3.31H39.79v.66h-.68V16.2Z"/><path class="cls-3" d="M164,16.15a4.39,4.39,0,0,1,2.81,1.09l-.37.42a3.77,3.77,0,0,0-4.87,0l-.37-.42a4.37,4.37,0,0,1,2.8-1.09Zm0,1.45a2.89,2.89,0,0,1,1.86.7l-.39.44a2.33,2.33,0,0,0-2.93,0l-.4-.45A3,3,0,0,1,164,17.6ZM164,19a1.46,1.46,0,0,1,.9.32l-.9,1-.9-1A1.48,1.48,0,0,1,164,19Z"/><path class="cls-3" d="M200,91.58V28.76A28.77,28.77,0,0,0,171.24,0H31.48A29.88,29.88,0,0,0,1.69,29.79v23A1.69,1.69,0,0,0,0,54.5V66.29A1.69,1.69,0,0,0,1.69,68V82A1.69,1.69,0,0,0,0,83.71V109a1.69,1.69,0,0,0,1.69,1.69v8.43A1.69,1.69,0,0,0,0,120.79v25.28a1.69,1.69,0,0,0,1.69,1.69V373.5a30,30,0,0,0,29.88,29.89H171.24A28.86,28.86,0,0,0,200,374.62V138.21h.56a1.69,1.69,0,0,0,1.69-1.69V93.26a1.69,1.69,0,0,0-1.69-1.69H200ZM124.88,12.84a2.46,2.46,0,0,1-4.92.1v-.1a2.46,2.46,0,0,1,4.92,0Zm-33.43-.48h21.91a1.54,1.54,0,0,1,1.69,1.4,1.54,1.54,0,0,1-1.69,1.41H91.45a1.53,1.53,0,0,1-1.68-1.41A1.53,1.53,0,0,1,91.45,12.36ZM189.33,372.2c0,9.81-7.24,18.26-17.05,18.26H32.39A18.69,18.69,0,0,1,14.05,372.2V27.66c0-9.81,8.53-17,18.34-17H48.56c3.42,0,4.68-.39,4.89,3.94a8.35,8.35,0,0,0,2.26,5.45,12.09,12.09,0,0,0,5.23,3.24,15.39,15.39,0,0,0,4.51.85h73.92a15.84,15.84,0,0,0,4.51-.94,12.21,12.21,0,0,0,5.23-3.14,8.1,8.1,0,0,0,2.26-5.35c.2-4.33,1.47-4.05,4.89-4.05h16c9.81,0,17.05,7.17,17.05,17Z"/><path class="cls-3" d="M113.36,12.36H91.45a1.53,1.53,0,0,0-1.68,1.41,1.53,1.53,0,0,0,1.68,1.4h21.91a1.54,1.54,0,0,0,1.69-1.4A1.54,1.54,0,0,0,113.36,12.36Z"/><circle class="cls-3" cx="122.42" cy="12.84" r="2.46"/></g></g></svg>