<svg xmlns="http://www.w3.org/2000/svg" xml:space="preserve" viewBox="0 0 20 20">
  <path fill="#FFF" d="M19.566 13.227c-.017-.031-.041-.055-.072-.071s-.063-.026-.096-.026a.202.202 0 0 0-.094.026c-.031.017-.057.04-.073.071s-.025.063-.025.096.009.066.025.096a.19.19 0 0 0 .169.098.204.204 0 0 0 .096-.026.18.18 0 0 0 .07-.072c.018-.029.025-.063.025-.096s-.007-.065-.025-.096zm-.101.168h-.041l-.026-.063h-.025v.063h-.034v-.162h.068a.08.08 0 0 1 .042.01.055.055 0 0 1 .017.04c0 .018-.008.034-.025.042l.024.07z"/>
  <path fill="#FFF" d="M19.415 13.266c0-.004-.017-.004-.026-.004h-.017v.043h.026s.008 0 .017-.004.009-.012.009-.02c0-.006 0-.011-.009-.015zM14.014 4.012A5.96 5.96 0 0 0 9.999 5.56a5.963 5.963 0 0 0-4.014-1.546h-.038A5.988 5.988 0 0 0 0 10a5.988 5.988 0 0 0 5.985 5.986 5.961 5.961 0 0 0 4.013-1.547 5.905 5.905 0 0 1-.612-.653h1.237a6.244 6.244 0 0 1-.608.641h-.001l-.016.014a5.956 5.956 0 0 0 4.018 1.548A5.989 5.989 0 0 0 20 10v-.003a5.988 5.988 0 0 0-5.986-5.985zM9.455 6.179h1.137c.168.203.324.417.465.641h-2.03a8.12 8.12 0 0 1 .428-.641zm-.782 1.27H11.4c.098.208.184.421.258.641H8.35c.032-.062.148-.311.323-.641zm-3.016 3.987h-.71l.423-2.219-.973 2.218h-.643l-.118-2.203-.423 2.203H2.57l.55-2.884h1.108l.051 1.786.787-1.786h1.15l-.559 2.885zm2.512-1.247-.152.833-.025.15-.017.118-.008.08-.008.063h-.593l.017-.242c-.177.193-.423.283-.744.283-.38 0-.643-.262-.643-.641 0-.57.457-.904 1.243-.904.076 0 .178.007.288.018.017-.077.025-.109.025-.152 0-.155-.127-.212-.457-.212-.203 0-.432.024-.583.064l-.102.027-.059.015.093-.528a3.2 3.2 0 0 1 .846-.123c.609 0 .931.238.931.688a2.674 2.674 0 0 1-.052.463zm1.414-1.157c.583 0 .956.332.956.851 0 .174-.025.342-.085.58H9.049c-.009.036-.009.052-.009.074 0 .271.211.41.618.41.254 0 .482-.045.736-.148l-.118.587a2.773 2.773 0 0 1-.719.095c-.795 0-1.21-.36-1.21-1.051 0-.805.525-1.397 1.236-1.398zm1.481 4.136H8.94a5.85 5.85 0 0 1-.354-.641h2.826a5.646 5.646 0 0 1-.348.641zm1.301-3.54a4.901 4.901 0 0 0-.517-.034c-.229 0-.347.064-.347.19 0 .109.033.136.33.255.363.143.508.331.508.653 0 .535-.348.782-1.109.782a4.955 4.955 0 0 1-.583-.041l-.126-.022-.035-.007.101-.541c.229.064.424.093.644.093.279 0 .405-.065.405-.212 0-.107-.042-.142-.329-.258-.38-.153-.55-.358-.55-.654 0-.433.279-.794 1.074-.794.17 0 .449.021.635.046l-.101.544zm1.11 1.282a.652.652 0 0 0 .185-.023l-.093.521a1.853 1.853 0 0 1-.508.076c-.363 0-.559-.183-.559-.516 0-.065.009-.136.018-.21l.043-.231.033-.185.33-1.791h.701l-.102.539h.363l-.102.571h-.363l-.186.978c-.009.043-.009.075-.009.098.002.12.078.172.249.173zm1.728-1.16c-.338 0-.447.252-.701 1.687h-.711l.432-2.346h.644l-.067.356c.22-.277.389-.381.617-.381.025 0 .051.002.076.006l.061.014c.008.002.016.002.076.025l-.254.663-.084-.018a.725.725 0 0 0-.089-.006zm1.256 1.748c-.806 0-1.126-.486-1.126-1.082 0-.831.55-1.395 1.396-1.395.736 0 1.125.463 1.125 1.058 0 .146 0 .156-.016.292-.111.781-.652 1.127-1.379 1.127zm1.454-.062a.186.186 0 0 1-.187-.184c0-.101.085-.183.187-.183s.187.082.187.183a.186.186 0 0 1-.187.184z"/>
  <path fill="#FFF" d="M17.913 11.113c-.075 0-.144.062-.144.139 0 .078.068.14.144.14a.137.137 0 0 0 .136-.14.137.137 0 0 0-.136-.139zm.067.22h-.043l-.025-.063h-.025v.063h-.033v-.162h.067c.009 0 .026.001.043.009a.058.058 0 0 1 .017.041c0 .018-.008.035-.025.042l.024.07z"/>
  <path fill="#FFF" d="M17.93 11.203c0-.003-.017-.003-.025-.003h-.018v.042h.026s.009 0 .017-.004c.009-.004.009-.012.009-.019-.001-.005-.001-.012-.009-.016zM9.574 9.569c-.229 0-.389.149-.457.421l.787.001v-.122c0-.189-.119-.3-.33-.3zM7.281 10.381c-.397 0-.6.121-.6.357 0 .146.093.239.253.239.288 0 .491-.24.507-.587a1.274 1.274 0 0 0-.16-.009zM16.712 9.596c-.364 0-.583.427-.583.804 0 .318.151.533.405.527.153 0 .481-.21.542-.575.016-.085.025-.179.025-.281.001-.243-.101-.476-.389-.475z"/>
</svg>
