<svg xmlns="http://www.w3.org/2000/svg" xml:space="preserve" viewBox="-10.393 -3 69.286 20">
  <g fill="#FFF">
    <path d="M51.75-3H38.465c.714 4.429 5 8.571 9.714 8.571h10.572c.142-.428.142-1 .142-1.428C58.893.143 55.75-3 51.75-3zM39.607 17h6.429v-5.714h5.714c3.144 0 5.856-2.144 6.715-5H39.607V17zM28.893-1.571l-5 10h-.714V-3H16.75v20h5.714s1.429 0 2.143-1.429l5-10h.714V17h6.429V-3h-5.714s-1.429.143-2.143 1.429zM4.607-.143C2.321 6.572 1.75 8.429 1.75 8.429s-.286-1-2.857-8.572C-2.107-3-3.964-3-3.964-3h-6.429v20h6.429V6.286h.714L.321 17h2.857L6.75 6.286h.714V17h6.429V-3H7.464S5.607-3 4.607-.143z"/>
  </g>
</svg>
