<svg xmlns="http://www.w3.org/2000/svg" xml:space="preserve" viewBox="0 0 20 25.347">
  <path fill="#FFF" fill-rule="evenodd" d="M15.325 25.286c-.407-.117-.819-.602-.906-1.063-.057-.301.013-.51.444-1.344 1.742-3.371 2.5-6.474 2.5-10.239 0-3.639-.671-6.471-2.337-9.864-.357-.729-.65-1.405-.65-1.503 0-.361.303-.884.63-1.09.448-.282 1.2-.229 1.561.109.139.13.498.72.799 1.311a24.922 24.922 0 0 1 2.411 7.581c.25 1.654.3 4.789.101 6.303-.368 2.793-1.105 5.286-2.286 7.728-.713 1.476-1.161 2.083-1.536 2.083-.075 0-.197.019-.271.041-.077.022-.283-.002-.46-.053zm-4.85-2.537c-.624-.182-1.074-.947-.894-1.521.043-.14.337-.779.652-1.422 1.335-2.722 1.891-5.64 1.618-8.505-.224-2.354-.646-3.838-1.708-6.011-.713-1.457-.746-1.683-.331-2.27.395-.558 1.378-.648 1.896-.174.358.329 1.472 2.655 1.902 3.973 1.423 4.361 1.206 9.042-.618 13.326-.935 2.194-1.591 2.873-2.517 2.604zm-5.003-2.574a1.517 1.517 0 0 1-.808-.993c-.055-.25.04-.527.497-1.453 1.68-3.402 1.698-6.68.056-10.003-.721-1.46-.737-1.751-.127-2.327.301-.284.429-.334.852-.334.709 0 1.077.356 1.711 1.658.975 2.003 1.375 3.74 1.371 5.966-.003 2.288-.376 3.858-1.418 5.971-.596 1.209-.891 1.528-1.488 1.61a1.407 1.407 0 0 1-.646-.095zM.805 17.778c-.305-.127-.655-.542-.758-.903-.116-.404-.021-.725.438-1.479.59-.97.727-1.489.727-2.757s-.137-1.788-.727-2.757c-.2-.329-.4-.723-.446-.875-.19-.639.342-1.422 1.058-1.557.606-.114 1.023.157 1.58 1.027 1.614 2.52 1.614 5.886 0 8.384-.571.881-1.206 1.192-1.872.917z" clip-rule="evenodd"/>
</svg>
