<svg xmlns="http://www.w3.org/2000/svg" viewBox="0 0 512 511.68">
		<path d="M318 211.68a125.24 125.24 0 0 0-48.54 9.69 10 10 0 0 0 7.71 18.46 105.89 105.89 0 1 1-57.05 57.08 10 10 0 0 0-18.46-7.7A126 126 0 1 0 318 211.68Z"/>
		<path d="M318 419.68a82 82 0 1 0-82-82 82.09 82.09 0 0 0 82 82Zm0-144a62 62 0 1 1-62 62 62.08 62.08 0 0 1 62-62Z"/>
		<path d="M461.28 163.68h-30.42L396 104.59a10 10 0 0 0-8.61-4.91H248.67a10 10 0 0 0-8.61 4.91l-34.91 59.09H148v-12a36 36 0 0 0-72 0v12H50.72A50.77 50.77 0 0 0 0 214.4V461a50.77 50.77 0 0 0 50.72 50.72h410.56A50.77 50.77 0 0 0 512 461V214.4a50.77 50.77 0 0 0-50.72-50.72Zm-206.9-44h127.25l26 44H228.38ZM96 151.68a16 16 0 0 1 32 0v12H96ZM492 461a30.75 30.75 0 0 1-30.72 30.72H50.72A30.75 30.75 0 0 1 20 461V214.4a30.75 30.75 0 0 1 30.72-30.72h410.56A30.75 30.75 0 0 1 492 214.4V461Z"/>
		<path d="M318 318.18a19.53 19.53 0 0 1 19.5 19.5 10 10 0 1 0 20 0 39.55 39.55 0 0 0-39.5-39.5 10 10 0 0 0 0 20ZM318 73.37a10 10 0 0 0 10-10V10a10 10 0 0 0-20 0v53.37a10 10 0 0 0 10 10ZM365.59 73.37a9.93 9.93 0 0 0 7.07-2.93l36.69-36.69a10 10 0 0 0-14.14-14.14L358.52 56.3a10 10 0 0 0 7.07 17.07ZM263.35 70.45a10 10 0 0 0 14.14-14.15L240.8 19.61a10 10 0 0 0-14.14 14.14ZM138 245.68H86a10 10 0 0 0 0 20h52a10 10 0 0 0 0-20ZM236 265.68a10 10 0 1 0-7.07-2.93 10.08 10.08 0 0 0 7.07 2.93Z"/>
</svg>
