<svg xmlns="http://www.w3.org/2000/svg" xml:space="preserve" viewBox="1896 594 20 20">
  <path fill="#FFF" d="M1913.071 594h-14.141a2.933 2.933 0 0 0-2.93 2.93v14.141a2.933 2.933 0 0 0 2.93 2.93h14.141a2.933 2.933 0 0 0 2.93-2.93V596.93a2.934 2.934 0 0 0-2.93-2.93zm-2.185 11.144c.034.569.906 1.122 1.355 1.579.365.373 1.158.998 1.015 1.635-.133.584-1.005.371-1.852.405-.967.041-1.54.062-2.121-.405-.274-.222-.436-.484-.697-.777-.239-.266-.539-.741-.949-.723-.734.036-.505 1.062-.766 1.76-4.088.644-5.729-1.882-7.177-4.331-.702-1.188-1.715-3.736-1.715-3.736l2.891-.01s.927 1.687 1.173 2.121c.209.37.438.663.676.994.199.273.514.81.857.766.561-.071.662-2.245.315-2.974-.139-.295-.47-.397-.813-.498.116-.731 3.242-.884 3.747-.316.734.824-.508 3.119.497 3.788 1.411-.739 2.617-3.836 2.617-3.836l3.384.021s-.529 1.674-1.084 2.416c-.323.435-1.395 1.404-1.353 2.121z"/>
</svg>
