<svg xmlns="http://www.w3.org/2000/svg" viewBox="0 0 955.99 963.78">
      <path fill="#7ad06d" d="M454.63.56C200.09 12.68-.77 224.65 0 479.48a475.86 475.86 0 0 0 52 215.59L1.28 941.41a18.61 18.61 0 0 0 22.51 21.86l241.38-57.19a475.85 475.85 0 0 0 205.39 49.86c260.16 4 477.08-202.6 485.19-462.66C964.44 214.51 734.37-12.76 454.63.56Zm288 742.09a374.51 374.51 0 0 1-431.23 70.58l-33.6-16.74-148 35.06L161 680.33l-16.6-32.43a374.61 374.61 0 0 1 68.94-434.56 374.28 374.28 0 0 1 529.31 529.31Z" />
      <path fill="#7ad06d" d="m710 581.66-92.59-26.59a34.52 34.52 0 0 0-34.15 9l-22.66 23.07a33.73 33.73 0 0 1-36.67 7.73c-43.8-17.72-135.93-99.64-159.46-140.61a33.71 33.71 0 0 1 2.67-37.38l19.76-25.58a34.5 34.5 0 0 0 4.26-35.06l-39-88.1a34.53 34.53 0 0 0-53.92-12.34c-25.84 21.85-56.5 55.06-60.23 91.86-6.57 64.87 21.25 146.64 126.46 244.83 121.59 113.44 218.92 128.43 282.29 113.08 35.94-8.71 64.66-43.61 82.79-72.19A34.52 34.52 0 0 0 710 581.66Z" />
</svg>
