<svg xmlns="http://www.w3.org/2000/svg" viewBox="0 0 1190.6 841.9"><path d="M595.3 0c-171.5 0-311 139.5-311 311 0 56.5 25.3 117.2 26.4 119.7 8.2 19.4 24.3 49.6 35.9 67.2L559.8 821c8.7 13.2 21.6 20.8 35.4 20.8 13.8 0 26.7-7.6 35.4-20.8L844 498c11.7-17.7 27.8-47.8 35.9-67.2 1.1-2.5 26.4-63.3 26.4-119.7C906.3 139.5 766.8 0 595.3 0zm250.9 416.5c-7.3 17.4-22.3 45.4-32.8 61.3L600.2 800.9c-4.2 6.4-5.5 6.4-9.8 0L377.2 477.8c-10.4-15.8-25.5-43.9-32.8-61.3-.3-.8-23.5-56.6-23.5-105.5 0-151.3 123.1-274.4 274.4-274.4 151.3 0 274.4 123.1 274.4 274.4 0 49-23.3 105-23.5 105.5z"/><path d="M595.3 146.4c-90.8 0-164.6 73.9-164.6 164.6 0 90.8 73.9 164.6 164.6 164.6 90.8 0 164.6-73.9 164.6-164.6 0-90.8-73.8-164.6-164.6-164.6zm0 292.7c-70.6 0-128.1-57.4-128.1-128.1 0-70.6 57.5-128.1 128.1-128.1S723.4 240.3 723.4 311c-.1 70.6-57.5 128.1-128.1 128.1z"/></svg>