<svg version="1.1" id="Слой_1" xmlns="http://www.w3.org/2000/svg" x="0" y="0" width="544.611" height="200.728" xml:space="preserve"><path d="M24.612 151.306C10.347 151.306 0 142.591 0 123.488V84.52c0-19.103 10.735-27.817 27.748-27.817 17.143 0 26.441 8.208 26.441 24.351V91.44H36.521v-9.48c0-7.048-2.488-10.516-9.032-10.516-6.674 0-10.082 4.62-10.082 14.101v36.411c0 9.742 2.88 13.968 9.946 13.968 6.81 0 9.688-5 9.688-13.208v-8.071H26.177v-14.227h28.012l-.178 27.204c.001 19.917-14.554 23.684-29.399 23.684m39.649-27.944V84.774c0-18.846 10.599-27.942 27.089-27.942 16.496 0 27.098 9.097 27.098 27.942v38.588c0 19.224-10.602 27.944-27.098 27.944-16.879 0-27.089-8.59-27.089-27.944m36.648-1.284V85.544c0-9.618-2.749-13.971-9.56-13.971-7.061 0-9.551 4.491-9.551 13.971v36.534c0 9.489 2.491 13.845 9.551 13.845 6.811 0 9.56-4.357 9.56-13.845m28.396-64.096h17.279v75.377h25.13v16.531h-42.409zm75.911 0c5.499 0 10.208.902 14.527 2.824 8.378 3.587 13.615 11.407 13.615 24.487v37.298c0 6.535-1.184 11.663-3.664 15.634-4.714 8.08-13.616 11.664-24.612 11.664H181V57.982h24.216zm-7.333 77.301h6.549c7.2 0 11.386-4.233 11.386-14.233V86.442c0-10.128-4.32-14.229-11.52-14.229h-6.416v63.07zm57.197-18.333l-19.111-58.968h17.538l9.418 33.33 1.051 7.818 1.047-7.818 9.81-33.33h17.413l-19.767 58.968v32.94H255.08zm59.808 32.948h-16.627V57.982h24.74c18.197 0 26.047 6.927 26.047 23.207v15.636c0 15.129-7.592 24.225-25.785 24.225h-8.375v28.848zm0-43.333h7.463c6.672 0 9.811-3.459 9.811-10.123V81.7c0-7.048-3.011-9.617-9.811-9.617h-7.463v34.482zm43.445 16.797V84.774c0-18.846 10.604-27.942 27.1-27.942 16.493 0 27.09 9.097 27.09 27.942v38.588c0 19.224-10.597 27.944-27.09 27.944-16.885 0-27.1-8.59-27.1-27.944m36.651-1.284V85.544c0-9.618-2.747-13.971-9.552-13.971-7.074 0-9.56 4.491-9.56 13.971v36.534c0 9.489 2.485 13.845 9.56 13.845 6.805 0 9.552-4.357 9.552-13.845m28.396-64.096h17.273v75.377h25.135v16.531H423.38zm51.693 91.908V57.982h43.849v14.999h-27.095v22.822h23.822v15.121h-23.822v23.462h27.884v15.504zM9.482 179.708c1.709 0 3.222.377 4.62 1.107 2.855 1.451 4.62 4.303 4.62 8.633v1.162c0 2.154-.375 3.896-1.159 5.348-1.601 2.881-4.358 4.336-7.822 4.336H2.76v-20.586h6.722zm-4.887 18.926h5.089c1.39 0 2.585-.316 3.694-.9 2.177-1.254 3.461-3.604 3.461-7.24v-.961c0-1.807-.325-3.26-.995-4.506-1.334-2.41-3.633-3.666-6.427-3.666H4.595v17.273zm43.915-4.445l-2.293 6.107h-1.923l7.939-20.588h1.857l8.262 20.588h-1.924l-2.407-6.107H48.51zm.642-1.633h8.226l-4.214-10.641-4.012 10.641zm40.277 7.738v-20.591h1.865l11.278 16.115 1.02 1.682-.028-.399v-17.398h1.774v20.591h-1.688l-11.628-16.597-.817-1.371v17.968zm53.019.409c-5.76 0-9.012-3.26-9.012-9.941v-1.195c0-6.629 3.427-10.178 9.128-10.178 4.743 0 7.762 2.385 8.312 7.092h-1.888c-.492-3.457-2.644-5.404-6.424-5.404-4.567 0-7.238 2.961-7.238 8.572v1.021c0 5.467 2.555 8.254 7.177 8.254 3.925 0 6.194-2.291 6.63-5.729h1.921c-.497 4.631-3.489 7.508-8.606 7.508m36.415-.409v-20.591h14.016v1.662h-12.214v7.734h10.379v1.662h-10.379v7.846h12.648v1.687zm77.051-.441c-2.388-1.162-3.402-3.313-3.608-6.365h1.974c.15 3.43 1.979 5.559 6.31 5.559 1.346 0 2.413-.234 3.259-.617 1.715-.813 2.474-2.238 2.474-3.719 0-1.566-.759-2.469-1.918-3.053-1.168-.582-2.677-.871-4.281-1.189-1.715-.326-3.396-.67-4.765-1.455-1.367-.729-2.207-1.98-2.207-4.068 0-1.021.267-1.922.812-2.762 1.051-1.688 3.108-2.795 6.16-2.795 4.798 0 7.422 2.328 7.647 6.076h-1.888c-.208-2.848-2.123-4.477-5.76-4.477-3.311 0-5.109 1.773-5.109 3.928 0 1.48.729 2.318 1.888 2.877 1.132.553 2.646.813 4.214 1.129 1.749.352 3.486.727 4.849 1.514 1.348.818 2.216 2.066 2.216 4.248 0 1.104-.295 2.09-.843 3.018-1.165 1.84-3.372 3.002-6.774 3.002-1.923-.001-3.43-.292-4.65-.851m45.655.441h-1.89v-18.902h-6.397v-1.689h14.975v1.689h-6.688zm33.683-9.013v-11.572h1.921v11.539c0 5.293 1.656 7.676 5.921 7.676 4.164 0 5.882-2.383 5.882-7.676v-11.539h1.885v11.572c0 6.453-2.523 9.447-7.786 9.447-5.469 0-7.823-2.994-7.823-9.447m51.037-11.573c1.715 0 3.225.377 4.623 1.107 2.852 1.451 4.625 4.303 4.625 8.633v1.162c0 2.154-.386 3.896-1.167 5.348-1.596 2.881-4.359 4.336-7.822 4.336h-6.978v-20.586h6.719zm-4.884 18.926h5.092c1.388 0 2.583-.316 3.689-.9 2.182-1.254 3.458-3.604 3.458-7.24v-.961c0-1.807-.314-3.26-.992-4.506-1.329-2.41-3.628-3.666-6.422-3.666h-4.825v17.273zm40.196-.088h4.186v-17.154h-4.186v-1.684h10.14v1.684h-4.18v17.154h4.18v1.748h-10.14zm36.249-7.818v-1.162c0-6.543 3.336-10.178 8.828-10.178 1.746 0 3.292.381 4.626 1.164 2.68 1.566 4.244 4.566 4.244 9.014v1.162c0 2.207-.344 4.039-1.131 5.52-1.512 2.969-4.214 4.455-7.764 4.455-5.585 0-8.803-3.317-8.803-9.975m15.783-.059v-1.021c0-5.523-2.591-8.572-6.955-8.572-4.441 0-6.916 3.139-6.916 8.545v1.049c0 5.377 2.475 8.318 6.916 8.318 4.248 0 6.955-2.91 6.955-8.319m32.254 9.184c-2.385-1.162-3.402-3.313-3.604-6.365h1.973c.15 3.43 1.979 5.559 6.311 5.559 1.34 0 2.418-.234 3.264-.617 1.712-.813 2.469-2.238 2.469-3.719 0-1.566-.757-2.469-1.924-3.053-1.165-.582-2.672-.871-4.268-1.189-1.721-.326-3.41-.67-4.772-1.455-1.368-.729-2.207-1.98-2.207-4.068 0-1.021.261-1.922.812-2.762 1.051-1.688 3.11-2.795 6.168-2.795 4.79 0 7.408 2.328 7.645 6.076h-1.898c-.203-2.848-2.118-4.477-5.746-4.477-3.316 0-5.117 1.773-5.117 3.928 0 1.48.729 2.318 1.885 2.877 1.134.553 2.641.813 4.22 1.129 1.745.352 3.488.727 4.848 1.514 1.34.818 2.219 2.066 2.219 4.248 0 1.104-.295 2.09-.849 3.018-1.158 1.84-3.369 3.002-6.779 3.002-1.917-.001-3.43-.292-4.65-.851m37.885-173.164a.38.38 0 00.072-.064l-.097.039a3.37 3.37 0 00-1.298-.953 3.497 3.497 0 00-4.576 1.889 3.413 3.413 0 00-.233 1.701c-15.706 5.909-17.924-1.975-16.796-22.306 1.435.073 2.83-.74 3.403-2.142a3.502 3.502 0 00-1.891-4.584 3.51 3.51 0 00-4.581 1.897 3.499 3.499 0 001.12 4.126c-13.88 15.644-19.9 20.943-27.9 3.011a3.421 3.421 0 001.434-1.646 3.502 3.502 0 00-1.887-4.583 3.507 3.507 0 00-4.584 1.892 3.497 3.497 0 001.888 4.582c.319.136.631.197.947.233-.214 14.467-2.344 29.473-2.344 29.473l33.908 14.098s7.369-10.284 18.48-21.752c.275.234.57.441.926.588a3.505 3.505 0 004.581-1.897 3.49 3.49 0 00-.572-3.602" fill="#FFF"/></svg>