<svg xmlns="http://www.w3.org/2000/svg" viewBox="0 0 3449.89 630.48"><g id="Layer_2" data-name="Layer 2"><path d="M165.71 628.71c-219.1 10.54-154.45-299-163.26-443-24.39-237.84 373.79-249 359.47-23v68.9H244.71c-1-50.69 13.57-137.9-59.91-132.64-44.27 0-66.88 30.64-66.88 93.53V434c-10.89 125.42 138.31 123.16 130.24 5v-53.49H176.1v-94.37h185.81c-2.47 174.42 36.09 346.05-196.2 337.57m263.01-185.36v-256c-16.61-248.52 376-248.46 359.44 0v256c17.26 249.32-378.56 249.71-359.44 0m243.1-8.52V192.49c0-63.8-18.24-92.68-63.41-92.68-46.84 0-63.36 29.79-63.36 92.68v242.34c0 62.94 16.52 91.84 63.36 91.84 45.17 0 63.41-28.9 63.41-91.84M860.18 9.66H974.8v500.01h166.69v109.65H860.18V9.66zm503.55 0c107.74.93 187 50.78 186.68 181.17-6.48 71.37 18.77 293.18-24.3 351.12-50 102.5-226.26 73.7-323 77.37V9.66zm-48.65 512.77c65.19 4 120.46-1.66 119-94.42V198.44c1.35-92.82-54.14-98.26-119-94.38zm379.41-121.61L1567.72 9.66h116.34c9.82 37.75 71.37 237.87 69.44 273-2.69-34.16 62.16-236.48 72-272.95H1941l-131.1 391.11v218.5h-115.41zm396.73 218.55h-110.29V9.66c132.62 3.17 349.67-36.74 336.88 154 7.68 182.23-5.62 277.58-226.59 264.4zm0-287.44c146.94 11.56 109.32-56.29 114.58-164.94 3.9-73.92-62.08-63.91-114.58-63.79zm288.19 111.42v-256c-16.6-248.47 376.08-248.51 359.46 0v256c17.27 249.37-378.57 249.66-359.46 0m243.12-8.52V192.49c0-63.8-18.22-92.68-63.36-92.68-46.93 0-63.41 29.79-63.41 92.68v242.34c0 62.94 16.48 91.84 63.41 91.84 45.14 0 63.36-28.9 63.36-91.84M2810.89 9.66h114.58v500.01h166.73v109.65h-281.31V9.66zm342.9 609.66V9.66h290.87v99.49h-179.73v151.39h158.02v100.3h-158.02v155.63h184.96v102.85h-296.1z" fill="#7e7d83" id="Слой_1" data-name="Слой 1"/></g></svg>