<svg xmlns="http://www.w3.org/2000/svg" viewBox="0 0 3612.65 1003.69"><g id="Layer_2" data-name="Layer 2"><path d="M163.26 1003.69C68.63 1003.69 0 945.88 0 819.16V560.67C0 434 71.21 376.15 184.06 376.15c113.72 0 175.4 54.44 175.4 161.53v68.9h-117.2v-62.89c0-46.76-16.51-69.76-59.91-69.76-44.27 0-66.88 30.65-66.88 93.54V809c0 64.63 19.1 92.66 66 92.66 45.17 0 64.26-33.17 64.26-87.62v-53.55h-72.09v-94.37h185.82l-1.18 180.45c0 132.13-96.55 157.12-195 157.12m263-185.36v-256c0-125 70.3-185.35 179.69-185.35s179.75 60.34 179.75 185.35v256c0 127.51-70.33 185.36-179.75 185.36-112 0-179.69-57-179.69-185.36m243.1-8.52V567.47c0-63.81-18.24-92.68-63.41-92.68-46.84 0-63.36 29.79-63.36 92.68v242.34c0 62.94 16.52 91.84 63.36 91.84 45.17 0 63.41-28.9 63.41-91.84m188.35-425.17h114.62v500H1139V994.3H857.73zm503.54 0c36.48 0 67.71 6 96.37 18.73 55.57 23.8 90.36 75.63 90.36 162.44v247.41c0 43.35-7.85 77.36-24.3 103.71-31.27 53.59-90.32 77.37-163.26 77.37h-159.79V384.64zm-48.64 512.76h43.44c47.76 0 75.53-28.08 75.53-94.41V573.42c0-67.18-28.65-94.38-76.41-94.38h-42.56zM1692 775.79l-126.73-391.15h116.34l62.47 221.09 7 51.86 7-51.86 65.07-221.09h115.51l-131.21 391.15V994.3H1692V775.79zm396.73 218.56h-110.25V384.64h164.11c120.71 0 172.78 45.95 172.78 153.94V642.3c0 100.36-50.36 160.69-171 160.69h-55.55zm0-287.44h49.5c44.26 0 65.08-22.95 65.08-67.15V542c0-46.76-20-63.8-65.08-63.8h-49.5zM2377 818.33v-256c0-125 70.34-185.35 179.76-185.35s179.7 60.34 179.7 185.35v256c0 127.51-70.29 185.36-179.7 185.36-112 0-179.76-57-179.76-185.36m243.12-8.52V567.47c0-63.81-18.22-92.68-63.36-92.68-46.93 0-63.41 29.79-63.41 92.68v242.34c0 62.94 16.48 91.84 63.41 91.84 45.14 0 63.36-28.9 63.36-91.84m188.32-425.17H2923v500h166.73V994.3h-281.29zm342.9 609.66V384.64h290.86v99.49h-179.73v151.39h158v100.3h-158v155.63h185V994.3zM3607.05 177a3.22 3.22 0 00.48-.43l-.65.26a22.27 22.27 0 00-8.6-6.32A23.19 23.19 0 003568 183v.06a22.56 22.56 0 00-1.55 11.28c-104.18 39.19-118.89-13.1-111.41-148a23.19 23.19 0 10-13-4.58c-92 103.77-132 138.92-185 20a22.65 22.65 0 009.51-10.92 23.24 23.24 0 10-30.4 12.54 21.58 21.58 0 006.28 1.55c-1.42 96-15.54 195.5-15.54 195.5l224.92 93.52s48.88-68.22 122.59-144.29a23.15 23.15 0 0032.65-32.66" fill="#bab8bd" opacity=".5" id="Layer_1-2" data-name="Layer 1"/></g></svg>