<svg xmlns="http://www.w3.org/2000/svg" viewBox="0 0 3992.05 1207.57"><defs><linearGradient id="linear-gradient" x1="2114.38" x2="1875.42" y1="18.25" y2="1201.94" gradientUnits="userSpaceOnUse"><stop offset="0" stop-color="#fff"/><stop offset=".26" stop-color="#fcfcfc"/><stop offset=".47" stop-color="#f2f2f2"/><stop offset=".67" stop-color="#e0e0e1"/><stop offset=".85" stop-color="#c9c9c9"/><stop offset="1" stop-color="#afafb0"/></linearGradient><linearGradient id="Безымянный_градиент_21" x1="43.91" x2="3970.45" y1="603.79" y2="603.79" gradientUnits="userSpaceOnUse"><stop offset="0" stop-color="#fff"/><stop offset=".42" stop-color="#fcfcfc"/><stop offset=".77" stop-color="#f2f2f2"/><stop offset="1" stop-color="#e6e6e6"/></linearGradient></defs><g id="Layer_2" data-name="Layer 2"><g id="Слой_1" data-name="Слой 1"><path fill="url(#linear-gradient)" d="M3992.05 603.78c0 333.47-252.3 603.79-563.54 603.79h-2865C252.3 1207.57 0 937.25 0 603.78 0 270.33 258.64 0 569.87 0h2858.64c311.24 0 563.54 270.33 563.54 603.78z"/><path fill="url(#Безымянный_градиент_21)" d="M3970.45 603.78c0 315.4-248.15 571.09-554.28 571.09H598.2c-306.13 0-554.29-255.69-554.29-571.09 0-315.4 248.16-571.07 554.29-571.07h2818c306.13 0 554.28 255.67 554.28 571.07z"/><path d="M1960 613.75c-55.25 0-100.29 42-100.29 99.91 0 57.52 45 99.9 100.29 99.9s100.28-42.38 100.28-99.9c.03-57.9-45-99.91-100.28-99.91zm0 160.46c-30.28 0-56.39-25-56.39-60.55 0-35.95 26.11-60.55 56.39-60.55s56.38 24.6 56.38 60.55c.03 35.57-26.08 60.55-56.38 60.55zm-218.74-160.46c-55.25 0-100.28 42-100.28 99.91 0 57.52 45 99.9 100.28 99.9s100.28-42.38 100.28-99.9c0-57.9-45.03-99.91-100.28-99.91zm0 160.46c-30.27 0-56.39-25-56.39-60.55 0-35.95 26.12-60.55 56.39-60.55s56.38 24.6 56.38 60.55c0 35.57-26.11 60.55-56.38 60.55zM1481 644.41v42.38h101.43c-3 23.84-11 41.25-23.09 53.36-14.76 14.76-37.84 31-78.34 31-62.44 0-111.25-50.33-111.25-112.77s48.83-112.74 111.25-112.74c33.69 0 58.28 13.24 76.45 30.27l29.91-29.91c-25.35-24.22-59-42.77-106.34-42.77-85.52 0-157.42 69.63-157.42 155.16s71.9 155.17 157.4 155.17c46.17 0 81-15.13 108.24-43.52 28-28 36.7-67.35 36.7-99.14a137.76 137.76 0 00-2.27-26.49zm1064.3 32.92c-8.33-22.33-33.68-63.58-85.53-63.58-51.46 0-94.23 40.5-94.23 99.91 0 56 42.39 99.9 99.15 99.9 45.79 0 72.28-28 83.25-44.27l-34.05-22.71c-11.36 16.65-26.87 27.63-49.2 27.63s-38.22-10.22-48.44-30.28l133.59-55.25zm-136.24 33.3c-1.13-38.6 29.9-58.27 52.22-58.27 17.41 0 32.17 8.7 37.09 21.19zm-108.61 96.88h43.9V513.85h-43.9zm-71.9-171.43H2227c-9.84-11.73-28.76-22.33-52.6-22.33-50 0-95.75 43.9-95.75 100.29 0 56 45.8 99.52 95.75 99.52 23.84 0 42.76-10.59 52.6-22.7h1.51v14.38c0 38.22-20.43 58.65-53.36 58.65-26.86 0-43.52-19.29-50.33-35.57l-38.22 15.9c11 26.49 40.12 59 88.55 59 51.47 0 95-30.27 95-104.07V619.81h-41.63zm-50.33 138.13c-30.27 0-55.63-25.36-55.63-60.17 0-35.2 25.36-60.93 55.63-60.93 29.9 0 53.36 25.73 53.36 60.93 0 34.81-23.46 60.17-53.36 60.17zm572.7-260.36h-105v293.66h43.82V696.25h61.2c48.59 0 96.34-35.17 96.34-91.2s-47.77-91.2-96.36-91.2zm1.13 141.53h-62.33V554.73h62.33c32.77 0 51.38 27.13 51.38 50.32 0 22.76-18.61 50.33-51.38 50.33zm270.88-42.17c-31.74 0-64.6 14-78.21 45l38.92 16.24c8.31-16.24 23.8-21.53 40-21.53 22.67 0 45.72 13.6 46.09 37.78v3c-7.93-4.53-24.93-11.33-45.71-11.33-41.93 0-84.62 23-84.62 66.11 0 39.29 34.38 64.6 72.91 64.6 29.47 0 45.71-13.22 55.91-28.71h1.51V807h42.32V694.44c.04-52.14-38.88-81.23-89.12-81.23zm-5.29 160.94c-14.36 0-34.38-7.18-34.38-24.93 0-22.67 24.93-31.36 46.47-31.36 19.27 0 28.33 4.16 40 9.82-3.36 27.2-26.73 46.47-52.09 46.47zm248.58-154.51L3216 747h-1.51l-52.14-127.31h-47.22l78.2 177.93-44.58 99h45.71L3315 619.64zm-394.79 187.87h43.83V513.85h-43.83zM1386.49 375.5v-11.58h46v2.65q0 20.52-10.6 34.92-14.73 19.86-41 19.86-24.51 0-40.89-16.47t-16.38-40.63q0-24.17 16.47-40.64t41.13-16.46q19.52 0 33.76 10.92a64.79 64.79 0 0112.75 13.08l-9.11 8.27a58.34 58.34 0 00-10.44-11.42 41.29 41.29 0 00-26.82-9.27q-19.69 0-32.44 13.08t-12.74 32.6q0 14.25 7 24.92t17 15.55a47.17 47.17 0 0020.94 4.89 40.14 40.14 0 0020-5 35.46 35.46 0 0013.82-13.49 33.55 33.55 0 004.47-15.73zm121.66-66.5v11.58h-45v32.78h43.69v11.58h-43.69v42.87h45v11.59h-57.27V309zm72.33 11.55h-26.82v98.82h-12.24v-98.82h-26.82V309h65.88zm46.84-11.55h12.24v110.4h-12.24zm90.53 11.55H1691v98.82h-12.25v-98.82H1652V309h65.87zM1857 405q-16.63 16.38-40.8 16.38T1775.37 405q-16.63-16.39-16.64-40.72 0-24.5 16.72-40.8t40.72-16.3q24 0 40.71 16.3t16.72 40.8q0 24.3-16.6 40.72zm-9-73a44.75 44.75 0 00-63.55 0q-13.08 13.25-13.08 32.28t13.08 32.28a44.75 44.75 0 0063.55 0q13-13.27 13-32.31T1847.94 332zm56.22 87.37H1892v-115l86 90.17V309h12.25v115.33l-86.07-90.2z" fill="#666"/><path fill="#00ceff" d="M556 288.84c-7.35 7.77-11.7 19.85-11.7 35.5v558.9c0 15.65 4.35 27.73 11.7 35.51l1.87 1.83L870.9 607.49v-7.39L557.82 287z"/><path fill="#ffcd00" d="M975.25 711.89L870.9 607.49v-7.39l104.38-104.39 2.36 1.34 123.65 70.26c35.31 20.06 35.31 52.9 0 73l-123.65 70.22z"/><path fill="#fb3746" d="M977.64 710.53L870.9 603.79 556 918.75c11.65 12.32 30.87 13.85 52.52 1.54l369.12-209.76"/><path fill="#0f0" d="M977.64 497.05L608.47 287.29C586.82 275 567.6 276.51 556 288.84l314.95 315z"/></g></g></svg>