<svg xmlns="http://www.w3.org/2000/svg" viewBox="0 0 202.26 403.39"><defs><style>.cls-3{fill:#242424}</style></defs><g id="Layer_2" data-name="Layer 2"><g id="Layer_1-2" data-name="Layer 1"><path d="M65.44 4.5H27.53S8.11 12.69 8.11 20.6v357.9l19.42 18h147.56s21-7.34 21-24.67V20.6l-21-16.1z" fill="#fff"/><path d="M180.82 18.37a.72.72 0 01-.7.82v-1.64a.73.73 0 01.7.82zm-.94-1.52v3a.7.7 0 01-.69.7h-9.13a.71.71 0 01-.71-.7v-3a.7.7 0 01.71-.7h9.12a.7.7 0 01.7.7zm-9.82-.47a.47.47 0 00-.47.47v3a.47.47 0 00.47.47h9.12a.47.47 0 00.47-.47v-3a.47.47 0 00-.47-.47zm-.24.47v3a.24.24 0 00.24.24h9.12a.24.24 0 00.24-.23v-3a.23.23 0 00-.24-.23h-9.12a.23.23 0 00-.24.23z" fill-rule="evenodd" fill="#242424"/><path class="cls-3" d="M30.58 19.51v.62h-2.9v-.49l1.56-1.48a1.73 1.73 0 00.36-.44.88.88 0 00.09-.38.49.49 0 00-.19-.42.83.83 0 00-.54-.14 1.08 1.08 0 00-.92.41l-.51-.4a1.59 1.59 0 01.62-.48 2.14 2.14 0 01.87-.17 1.59 1.59 0 011 .3 1 1 0 01.38.83 1.38 1.38 0 01-.13.6 2.24 2.24 0 01-.52.64l-1.05 1zm3.27 0v.62H31v-.49l1.56-1.48a2.32 2.32 0 00.36-.44.88.88 0 00.09-.38.49.49 0 00-.19-.42.83.83 0 00-.54-.14 1.08 1.08 0 00-.92.41l-.52-.4a1.67 1.67 0 01.62-.48 2.22 2.22 0 01.88-.17 1.59 1.59 0 011 .3 1 1 0 01.38.83 1.38 1.38 0 01-.13.6 2.42 2.42 0 01-.52.64l-1.05 1h1.86zm.53-1.61a.48.48 0 01-.14-.34.45.45 0 01.14-.33.39.39 0 01.32-.13.44.44 0 01.46.44.45.45 0 01-.13.34.49.49 0 01-.33.13.46.46 0 01-.32-.13zm0 2.14a.48.48 0 01-.14-.34.49.49 0 01.14-.34.41.41 0 01.32-.12.44.44 0 01.46.43.42.42 0 01-.16.33.45.45 0 01-.33.14.43.43 0 01-.32-.14zm4.76-.8h-.7v.89h-.7v-.89h-2.16v-.51l1.94-2.53h.78l-1.83 2.42h1.29v-.79h.68v.79h.7v.62zm3-3v.49l-1.52 3.44h-.78l1.47-3.31h-1.52v.66h-.68V16.2zM164 16.15a4.39 4.39 0 012.81 1.09l-.37.42a3.77 3.77 0 00-4.87 0l-.37-.42a4.37 4.37 0 012.8-1.09zm0 1.45a2.89 2.89 0 011.86.7l-.39.44a2.33 2.33 0 00-2.93 0l-.4-.45a3 3 0 011.86-.69zm0 1.4a1.46 1.46 0 01.9.32l-.9 1-.9-1a1.48 1.48 0 01.9-.32z"/><path class="cls-3" d="M200 91.58V28.76A28.77 28.77 0 00171.24 0H31.48A29.88 29.88 0 001.69 29.79v23A1.69 1.69 0 000 54.5v11.79A1.69 1.69 0 001.69 68v14A1.69 1.69 0 000 83.71V109a1.69 1.69 0 001.69 1.69v8.43A1.69 1.69 0 000 120.79v25.28a1.69 1.69 0 001.69 1.69V373.5a30 30 0 0029.88 29.89h139.67A28.86 28.86 0 00200 374.62V138.21h.56a1.69 1.69 0 001.69-1.69V93.26a1.69 1.69 0 00-1.69-1.69H200zm-75.12-78.74a2.46 2.46 0 01-4.92.1v-.1a2.46 2.46 0 014.92 0zm-33.43-.48h21.91a1.54 1.54 0 011.69 1.4 1.54 1.54 0 01-1.69 1.41H91.45a1.53 1.53 0 01-1.68-1.41 1.53 1.53 0 011.68-1.4zm97.88 359.84c0 9.81-7.24 18.26-17.05 18.26H32.39a18.69 18.69 0 01-18.34-18.26V27.66c0-9.81 8.53-17 18.34-17h16.17c3.42 0 4.68-.39 4.89 3.94a8.35 8.35 0 002.26 5.45 12.09 12.09 0 005.23 3.24 15.39 15.39 0 004.51.85h73.92a15.84 15.84 0 004.51-.94 12.21 12.21 0 005.23-3.14 8.1 8.1 0 002.26-5.35c.2-4.33 1.47-4.05 4.89-4.05h16c9.81 0 17.05 7.17 17.05 17z"/><path class="cls-3" d="M113.36 12.36H91.45a1.53 1.53 0 00-1.68 1.41 1.53 1.53 0 001.68 1.4h21.91a1.54 1.54 0 001.69-1.4 1.54 1.54 0 00-1.69-1.41z"/><circle class="cls-3" cx="122.42" cy="12.84" r="2.46"/></g></g></svg>