<svg xmlns="http://www.w3.org/2000/svg" viewBox="0 0 202.25 403.39"><defs><style>.cls-4{fill:#5d5d5d}.cls-5{fill:#fff}</style></defs><g id="Layer_2" data-name="Layer 2"><g id="OBJECTS"><path id="Battery_Icon_-_100_" fill="#5d5d5d" fill-rule="evenodd" d="M180.82 18.37a.72.72 0 01-.7.82v-1.64a.73.73 0 01.7.82zm-.94-1.52v3a.7.7 0 01-.7.7h-9.12a.7.7 0 01-.71-.7v-3a.7.7 0 01.71-.7h9.12a.7.7 0 01.7.7zm-9.82-.47a.47.47 0 00-.47.47v3a.47.47 0 00.47.47h9.12a.47.47 0 00.47-.47v-3a.47.47 0 00-.47-.47zm-.24.47v3a.24.24 0 00.24.24h9.12a.24.24 0 00.24-.24v-3a.23.23 0 00-.24-.23h-9.12a.23.23 0 00-.24.23z" data-name="Battery Icon - 100%"/><text fill="#5d5d5d" font-family="Montserrat-SemiBold,Montserrat" font-size="5.62" font-weight="600" transform="translate(27.48 20.13)">22:<tspan x="7.91" y="0" letter-spacing="-.05em">4</tspan><tspan x="11.47" y="0">7</tspan></text><path id="Wi-Fi_Icon" d="M164 16.15a4.39 4.39 0 012.81 1.09l-.37.42a3.78 3.78 0 00-4.87 0l-.37-.42a4.37 4.37 0 012.8-1.09zm0 1.45a2.89 2.89 0 011.86.7l-.4.44a2.27 2.27 0 00-1.46-.52 2.31 2.31 0 00-1.46.52l-.4-.45a3 3 0 011.86-.69zm0 1.4a1.48 1.48 0 01.9.32l-.9 1-.9-1a1.48 1.48 0 01.9-.32z" class="cls-4" data-name="Wi-Fi Icon"/><path d="M200 91.58V28.76A28.77 28.77 0 00171.24 0H31.48A29.88 29.88 0 001.69 29.8v23A1.69 1.69 0 000 54.5v11.79A1.68 1.68 0 001.69 68v14A1.68 1.68 0 000 83.71V109a1.69 1.69 0 001.69 1.69v8.43A1.68 1.68 0 000 120.79v25.28a1.69 1.69 0 001.69 1.69V373.5a30 30 0 0029.88 29.89h139.67A28.86 28.86 0 00200 374.62V138.21h.56a1.69 1.69 0 001.68-1.69V93.26a1.68 1.68 0 00-1.68-1.68zm-75.12-78.74a2.46 2.46 0 11-2.46-2.45 2.46 2.46 0 012.46 2.45zm-33.43-.48h21.91a1.54 1.54 0 011.69 1.4 1.54 1.54 0 01-1.69 1.41H91.45a1.53 1.53 0 01-1.68-1.41 1.53 1.53 0 011.68-1.4zm97.88 359.84c0 9.81-7.24 18.26-17.05 18.26H32.39a18.69 18.69 0 01-18.34-18.26V27.66c0-9.81 8.53-17 18.34-17h16.17c3.42 0 4.68-.39 4.89 3.95a8.35 8.35 0 002.26 5.45 12.09 12.09 0 005.23 3.24 15.39 15.39 0 004.51.85h73.92a15.7 15.7 0 004.5-.94 12.29 12.29 0 005.24-3.14 8.1 8.1 0 002.26-5.35c.2-4.34 1.47-4.06 4.89-4.06h16c9.81 0 17.05 7.18 17.05 17z" class="cls-4"/><path d="M113.36 12.36H91.45a1.53 1.53 0 00-1.68 1.4 1.53 1.53 0 001.68 1.41h21.91a1.54 1.54 0 001.69-1.41 1.54 1.54 0 00-1.69-1.4z" class="cls-5"/><circle cx="122.42" cy="12.84" r="2.46" class="cls-5"/></g></g></svg>