<svg xmlns="http://www.w3.org/2000/svg" viewBox="0 0 1080 970.31"><path d="M708.75 126.56a21.1 21.1 0 1021.09 21.1 21.1 21.1 0 00-21.09-21.1z"/><path d="M920.07 479.22c-23.94-85.89-128.34-220.73-115.38-457A21.08 21.08 0 00783.63 0H296.37a21.1 21.1 0 00-21.07 22.25C288.21 257.4 184.13 393.62 159.77 479c-44 154 27.8 352.92 128.45 483.08a21.1 21.1 0 0016.69 8.19h470.2a21.1 21.1 0 0016.69-8.19c95.79-123.81 170.82-330.87 128.27-482.86zM262.49 346.3c39.51-100.17 58.3-202.37 55.82-304.11h443.38c-2.48 101.7 16.26 203.88 55.79 304.06q2.52 6.38 5.25 12.86c-86.79 41.11-184.1 62.77-282.73 62.77s-195.95-21.66-282.73-62.77q2.73-6.44 5.22-12.81zm256.42 581.83H315.37c-108.65-145.25-141.08-310.07-120.3-415.58C309.3 556.4 417.52 650.89 518.91 727.68zM206.47 471.75c7.11-19.66 16-38 25.85-58.39q3.75-7.73 7.61-15.79c92.23 43.55 195.49 66.49 300.07 66.49s207.84-22.94 300.07-66.49c2.56 5.37 5.09 10.6 7.58 15.74 9.9 20.45 18.76 38.79 25.79 58.47C752.87 517.16 639.25 615.22 540 690.75c-99.68-75.85-212.93-173.63-333.53-219zm558.15 456.38H561.09V727.68c102.11-77.34 209.66-171.2 323.5-215 25.08 133.32-40.32 307.8-119.97 415.45z"/><path d="M760.31 312.06a846 846 0 01-23-84.83 21.09 21.09 0 10-41.31 8.89 888.19 888.19 0 0024.18 89.07 21.09 21.09 0 0040.09-13.13zm298.6-143.31H928.42l48.37-48.37A21.09 21.09 0 00947 90.55l-84.38 84.38a21.09 21.09 0 000 29.83L947 289.13a21.09 21.09 0 1029.83-29.83l-48.37-48.36h130.49a21.1 21.1 0 000-42.19zm-841.49 6.18L133 90.55a21.1 21.1 0 00-29.83 29.84l48.37 48.36H21.09a21.1 21.1 0 000 42.19h130.49l-48.37 48.36A21.1 21.1 0 10133 289.14l84.38-84.38a21.11 21.11 0 00.04-29.83z"/></svg>