<svg xmlns="http://www.w3.org/2000/svg" viewBox="0 0 512 511.68"><path d="M318 211.68a125.24 125.24 0 00-48.54 9.69 10 10 0 007.71 18.46 105.89 105.89 0 11-57.05 57.08 10 10 0 00-18.46-7.7A126 126 0 10318 211.68z"/><path d="M318 419.68a82 82 0 10-82-82 82.09 82.09 0 0082 82zm0-144a62 62 0 11-62 62 62.08 62.08 0 0162-62z"/><path d="M461.28 163.68h-30.42L396 104.59a10 10 0 00-8.61-4.91H248.67a10 10 0 00-8.61 4.91l-34.91 59.09H148v-12a36 36 0 00-72 0v12H50.72A50.77 50.77 0 000 214.4V461a50.77 50.77 0 0050.72 50.72h410.56A50.77 50.77 0 00512 461V214.4a50.77 50.77 0 00-50.72-50.72zm-206.9-44h127.25l26 44H228.38zM96 151.68a16 16 0 0132 0v12H96zM492 461a30.75 30.75 0 01-30.72 30.72H50.72A30.75 30.75 0 0120 461V214.4a30.75 30.75 0 0130.72-30.72h410.56A30.75 30.75 0 01492 214.4V461z"/><path d="M318 318.18a19.53 19.53 0 0119.5 19.5 10 10 0 1020 0 39.55 39.55 0 00-39.5-39.5 10 10 0 000 20zm0-244.81a10 10 0 0010-10V10a10 10 0 00-20 0v53.37a10 10 0 0010 10zm47.59 0a9.93 9.93 0 007.07-2.93l36.69-36.69a10 10 0 00-14.14-14.14L358.52 56.3a10 10 0 007.07 17.07zm-102.24-2.92a10 10 0 0014.14-14.15L240.8 19.61a10 10 0 00-14.14 14.14zM138 245.68H86a10 10 0 000 20h52a10 10 0 000-20zm98 20a10 10 0 10-7.07-2.93 10.08 10.08 0 007.07 2.93z"/></svg>