<svg xmlns="http://www.w3.org/2000/svg" viewBox="0 0 308.18 389"><path d="M179.61 99.21a31.37 31.37 0 10-12.43-2.58 31.36 31.36 0 0012.43 2.58zM159.77 75.7a21.4 21.4 0 1111.39 11.75 21.38 21.38 0 01-11.39-11.75z"/><path d="M275.41 78.9a16.83 16.83 0 00-23.7 1.82L229 107.15l-45.21 12.39s-47.2-20.4-47.53-20.47a15.85 15.85 0 00-3.77-.86l-98.4-9.51a16.81 16.81 0 00-3.23 33.47l87.4 8.44-22.88 52.8-76.94 115.07a16.81 16.81 0 0027.93 18.71l77-115.1.6.27 2.4 45.36-60.44 69a16.81 16.81 0 0025.29 22.15l65-74.18a16.68 16.68 0 004.14-12l-2.9-54.62 17.93-41.4 67.54-18.5a16.79 16.79 0 008.33-5.27l26-30.35a16.81 16.81 0 00-1.81-23.7zm-5.78 17.2l-26 30.34a6.85 6.85 0 01-3.38 2.14l-68.31 18.71a8.36 8.36 0 01-.85.14 5 5 0 00-3.89 3l-19.42 44.83a5 5 0 00-.4 2.26l3 55.8a6.75 6.75 0 01-1.67 4.84l-65 74.18a6.81 6.81 0 11-10.25-9l61.8-70.57a5 5 0 001.23-3.56l-2.68-50.49a5 5 0 00-3-4.32l-7.28-3.15a5 5 0 00-6.14 1.8L38.07 311.61a6.8 6.8 0 01-8.36 2.47 7.09 7.09 0 01-1.08-.6 6.8 6.8 0 01-1.89-9.43L104 188.59a4.73 4.73 0 00.43-.8l25.79-59.52a5 5 0 00-2.61-6.58 5.11 5.11 0 00-1.5-.39l-94.24-9.1a6.81 6.81 0 111.3-13.55l98.43 9.5a7 7 0 011.84.5c.2.07 48.06 20.75 48.06 20.75a5 5 0 003.31.24l48.39-13.24a5 5 0 002.48-1.57l23.66-27.6a6.81 6.81 0 0110.34 8.87zm3.44 102.57h-3a21.9 21.9 0 01-21.89-21.88v-3a5 5 0 00-10 0v3a21.9 21.9 0 01-21.89 21.88h-3a5 5 0 000 10h3a21.92 21.92 0 0121.89 21.89v3a5 5 0 0010 0v-3a21.92 21.92 0 0121.89-21.89h3a5 5 0 000-10zm-29.88 14.82a32 32 0 00-9.81-9.82 31.89 31.89 0 009.81-9.81 32 32 0 009.82 9.81 32.17 32.17 0 00-9.82 9.82zM228 291.55h-3a21.9 21.9 0 01-21.88-21.88v-3a5 5 0 00-10 0v3a21.91 21.91 0 01-21.89 21.88h-3a5 5 0 100 10h3a21.93 21.93 0 0121.89 21.89v3a5 5 0 0010 0v-3A21.91 21.91 0 01225 301.55h3a5 5 0 000-10zm-29.87 14.82a32.17 32.17 0 00-9.82-9.82 32 32 0 009.82-9.81 32 32 0 009.81 9.81 32.14 32.14 0 00-9.85 9.82zM303.18 0H5a5 5 0 000 10h298.18a5 5 0 000-10z"/><path d="M77.29 379H45.37V10h-10v369H5a5 5 0 000 10h72.29a5 5 0 100-10z"/></svg>