<svg xmlns="http://www.w3.org/2000/svg" viewBox="0 0 1080 810"><path d="M1057.5 765H135v-90h157.5a22.48 22.48 0 0022.5-22.5V540h157.5a22.48 22.48 0 0022.5-22.5V405h157.5a22.48 22.48 0 0022.5-22.5V270h157.5a22.48 22.48 0 0022.5-22.5V135h157.5a22.5 22.5 0 000-45h-180a22.48 22.48 0 00-22.5 22.5V225H652.5a22.48 22.48 0 00-22.5 22.5V360H472.5a22.48 22.48 0 00-22.5 22.5V495H292.5a22.48 22.48 0 00-22.5 22.5V630H112.5A22.48 22.48 0 0090 652.5V765H22.5a22.5 22.5 0 000 45h1035a22.5 22.5 0 000-45zm-900-405.06a22.35 22.35 0 0014.81-5.56L469.93 94l-18.79 56.35a22.52 22.52 0 0042.72 14.24l45-135a22.46 22.46 0 00-4.26-21.76A22.93 22.93 0 00513.81.25l-135 22.5a22.47 22.47 0 00-18.5 25.88c2.06 12.26 13.93 20.72 25.88 18.5l56.89-9.47L142.69 320.5a22.51 22.51 0 0014.81 39.44z"/></svg>