<svg xmlns="http://www.w3.org/2000/svg" viewBox="0 0 512 448"><path d="M488.62 300.25c-43-24.75-92-38.83-142.72-42.6 10.39 4.65 20.84 9.19 30.68 14.85a77.62 77.62 0 0127.35 27.11A297.52 297.52 0 01472.7 328c4.5 2.59 7.3 7.8 7.3 13.59V416h-64v32h80a16 16 0 0016-16v-90.41c0-17.23-9-33.07-23.38-41.34z"/><path d="M360.62 300.25c-100.71-57.91-236.53-57.91-337.25 0C9 308.55 0 324.38 0 341.59V432a16 16 0 0016 16h352a16 16 0 0016-16v-90.42c0-17.2-8.95-33-23.38-41.33zM352 416H32v-74.41c0-5.79 2.8-11 7.31-13.59 91.07-52.34 214.32-52.34 305.38 0 4.51 2.59 7.31 7.8 7.31 13.58zM312 32.75a76.17 76.17 0 018-.75 80 80 0 010 160 79 79 0 01-8-.75 144.16 144.16 0 01-24.21 27.45A109.26 109.26 0 00320 224a112 112 0 000-224 109.26 109.26 0 00-32.18 5.3A144.81 144.81 0 01312 32.75z"/><path d="M192 224A112 112 0 1080 112a112.14 112.14 0 00112 112zm0-192a80 80 0 11-80 80 80.09 80.09 0 0180-80z"/></svg>