<svg xmlns="http://www.w3.org/2000/svg" viewBox="0 0 552.18 832.86"><path fill="#f5f5f5" d="M178.34 718c-9.18-4-8.38-5.58-10-21.54s-.4-48.68 4-72.62-12-53.06-12-53.06l18.2-2.78a257.85 257.85 0 0063.25 21.31c16.1 7.38 27.79 10.48 57.84 15.72 21.19 3.7 35.83-4.33 47-16.45 117.41-24.94 205.51-129.2 205.51-254A259.52 259.52 0 00430 114.2c1.13-1.91 2.71-4.57 4.89-8.27 7.78-13.17 3.59-21-6.58-22.15h-.72a126.83 126.83 0 01-5.87-11.34c-1-2.26-2.07-4.7-3.11-7.15 18.09-7.08 20.19-30.9 12.69-38.93-8.39-9-29.3-21.57-29.3-21.57L399 0l-16.19.6s7.78 10.77 4.79 26.93S387 70 411.5 67c2.89 7 6.47 14.39 9.18 19.77-4.84 4-9.23 11-11.74 15.55a260 260 0 00-258.69 14.83L141 107.12c1.77-3.79 3.65-12.74 4.86-21.74 5.69.3 13.58-2.68 21.47-10.57 11.37-11.37 1.79-31.12-1.2-40.1s3.63-33.51 3.63-33.51L154.2.6s-3 16.76-12.57 28.73-20.34 21.54-18.55 35.9c1.26 10.1 9 14.87 13.53 16.81-2.36 8.34-4.53 17.2-5.79 22.53a17.42 17.42 0 00-7.14 3.75c-7.15 5.9.79 17.41 6.13 23.72a261.41 261.41 0 00-36.43 35.68c.79-5.57 2-9.82-1.22-5.94-2.28 2.74-4.56 9.66-6.1 15.08-.76 1-1.52 2-2.27 3a52.82 52.82 0 010-6.9c.4-5.18-3.19-6.78-5.18-.39-1.1 3.5-2.07 11.8-2.73 18.58a258.49 258.49 0 00-43.1 139.39c-1.52 0-4.14.36-5.24 2s2.73 7 5.33 10.38c0 .58 0 1.15.07 1.72-2.66-1.19-6.86-2.69-7.4-.53s4.89 8.74 8.11 12.32c.07.81.14 1.62.22 2.43-1.94.05-4.63.36-5.13 1.61-.61 1.52 3.85 5.1 6 6.74A258.38 258.38 0 0083.41 488.7c-5.11 10-14.37 29.89-25.16 52.51-12.37 25.93-27.93 55.45-33.12 65.43S6.38 638.16 6.78 651.72 0 708.78 0 708.78s6.78-1.2 14.76-8.78 10.37-14.37 14.76-25.14 25.94-15.56 31.92-21.94.8-16-4.39-21.14 7.18-19.56 15.56-31.12 32.32-33.12 32.32-33.12 4.79 32.32 7.18 55.06 12.77 46.28 16.76 68.62 7.58 39.1 10.77 55.06 11.17 41.89 16.76 54.26 1.6 32.32 1.6 32.32l7.18-2c7.19-2 7.58-18.75 7.58-18.75l2.4-6.38c2.39-6.39.8-24.74 1.2-37.11s6-16.75 12.36-22.34 2.8-18.75 2.8-18.75-4-5.59-13.18-9.53zM399.77 18.15s13.57 10 20.75 16.56c6.08 5.58 4 18-6.23 20.61-3.31-7.23-6.14-11.74-7.54-6.84-.43 1.52-.11 4 .7 7.08-14.88-2.51-7.68-37.41-7.68-37.41zM139.84 71.22S126.08 61 137.45 49.07s16.15-17.35 16.15-17.35 8.38 21 8.38 31.12c0 8.08-6 10.11-14.84 9.41.29-6.63-.18-11.42-1.91-11.21-1.4.18-3.3 4.36-5.29 10.19zM169.56 455s8-8.78 16.76-17.16 13.56-10.37 13.56-10.37 2.8 17.95 12 26.33 23.94 20.75 23.94 20.75-45.51-13.14-66.26-19.55zm11.17-82.59c-1.19 8-2 12.77-2 12.77s-10.77 6.38-16 16-3.59 16.36-16.76 14.36-28.32-4.79-35.11-7.58S91.76 396.78 87 394s-7.58-5.19-9.18-9.58-8-26.33-12.37-28.33c0 0 41.89-2 55.46-7.58s42.29-19.95 49.07-18.75 13.17 11.17 13.17 11.17-1.22 23.53-2.42 31.51zM76.2 418.72c12.77 12.37 39.1 25.94 39.1 25.94s-3.19 1.19-13.16 4.78c-6.56 2.36-9.84 13.56-12.56 23.14A244.14 244.14 0 0157 403.85a101 101 0 0119.2 14.87zM292.45 89.17C428 89.17 537.82 199 537.82 334.54c0 112.11-75.19 206.65-177.89 236 1.5-2.45 2.94-4.91 4.33-7.36 13.17-23.14-5.18-54.26-13.56-69.82s-28.33-48.67-42.29-75.41a362.5 362.5 0 01-25.54-61c-5.18-16-7.18-28.72-13.16-41.09s-11.17-17.56-17.16-23.94-12.77-15.16-10.77-19.15 6-.4 10 2.79a28.86 28.86 0 0024.74 5.19c12-2.8 21.54-21.95 26.33-31.92s-4-19.55-12-23.14-6-6-6.38-11.17-1.2-14.76-9.18-23.14-15.16-18.75-30.72-21.95-25.14-1.19-29.12 1.2-14 4.79-14 4.79c-2 8-6 9.57-14.36 9.57s-9.18.4-9.58 3.2.4 10 .4 10a13.19 13.19 0 00-6.38 2.79c-2.79 2.4 1.59 7.19 1.59 7.19s-2.39-2-4.78-.4-2.8 5.18-2.8 5.18a19.94 19.94 0 00-6.78 8.38c-2.79 6 11.57 12 18.35 17.56s7.19 18.35 7.58 23.54 3.2 17.95 3.2 17.95-15.17-.4-25.94 1.59-18.35 6.39-24.34 12.77-18.75 9.58-32.71 12.37-27.13 6.38-27.13 6.38 0-2 .4-12.36 2-35.51 9.18-49.48S96.15 228 97.75 216s12.77-32.31 19.55-40.69 4-13.57 4-13.57l-11.59 9a244.74 244.74 0 01182.74-81.57z"/></svg>