<svg xmlns="http://www.w3.org/2000/svg" viewBox="0 0 1006.42 1080"><path d="M503.21 608.32C178.71 608.32 0 761.83 0 1040.58A39.41 39.41 0 0039.42 1080H967a39.41 39.41 0 0039.41-39.42c.01-278.73-178.7-432.26-503.2-432.26zM80.27 1001.17c15.5-208.42 157.59-314 422.94-314s407.45 105.6 423 314zM503.21 0C354.15 0 241.75 114.66 241.75 266.7c0 156.5 117.29 283.8 261.46 283.8s261.46-127.3 261.46-283.78C764.67 114.66 652.27 0 503.21 0zm0 471.68c-100.71 0-182.63-91.95-182.63-205 0-108.87 76.81-187.89 182.63-187.89 104.13 0 182.63 80.77 182.63 187.89 0 113.05-81.92 205-182.63 205z" class="cls-1"/></svg>