<svg xmlns="http://www.w3.org/2000/svg" viewBox="412.437 133.48 175.172 56.693"><path d="M483.03 134.475l-8.876 54.88h14.19l8.875-54.88zm42.802 22.009c-4.964-2.511-8.003-4.204-8.003-6.773.059-2.335 2.57-4.728 8.173-4.728 4.613-.117 8.003.992 10.57 2.102l1.284.583 1.93-11.851c-2.799-1.11-7.238-2.336-12.728-2.336-14.014 0-23.882 7.473-23.942 18.156-.116 7.882 7.065 12.261 12.437 14.889 5.49 2.686 7.356 4.438 7.356 6.833-.056 3.676-4.437 5.371-8.521 5.371-5.665 0-8.701-.874-13.314-2.919l-1.869-.877-1.985 12.319c3.328 1.516 9.459 2.861 15.826 2.921 14.89 0 24.583-7.357 24.698-18.742.055-6.249-3.737-11.036-11.912-14.948zm50.33-22.009h-10.977c-3.385 0-5.956.992-7.416 4.554l-21.078 50.326h14.89l2.979-8.232h18.218c.408 1.927 1.693 8.232 1.693 8.232h13.139l-11.448-54.88zm-17.516 35.438c1.168-3.152 5.664-15.355 5.664-15.355-.059.117 1.168-3.211 1.867-5.254l.992 4.729s2.688 13.137 3.271 15.88h-11.794zm-96.344-35.438l-13.897 37.423-1.519-7.59-.001-.004-4.962-25.216c-.817-3.505-3.328-4.498-6.423-4.613h-22.83l-.233 1.109c5.568 1.424 10.549 3.476 14.913 6.027l12.648 47.687h15.006l22.304-54.823h-15.006z" fill="#FFF"/></svg>